<svg xmlns="http://www.w3.org/2000/svg" viewBox="0 0 51 49">
    <title>icon-cigarette</title>
    <path d="M13.44,21.92a1.71,1.71,0,0,1,2.31-.64l4.15,2.4a3.07,3.07,0,0,0-1.72,3L14.07,24.3h0A1.71,1.71,0,0,1,13.4,22ZM33.36,33.56h0ZM19.6,26.87a1.71,1.71,0,0,1,2.42-2L33.5,31.6a3.07,3.07,0,0,0-1.73,3L20.39,27.89h0a1.7,1.7,0,0,1-.79-1v0ZM39,34.29a3.06,3.06,0,0,0-1.43-1.87L22.36,23.54h0l-0.14-.08L16.47,20.1h0L16.23,20h0a3.07,3.07,0,0,0-3.06,5.29h0l20,11.7,0.18,0.11h0l1.18,0.69h0a3.09,3.09,0,0,0,1.54.41h0A3.07,3.07,0,0,0,39,34.29Z"/>
    <path d="M37.73,24.5a34.75,34.75,0,0,1-.53,5.35l1.26,0.73a37.93,37.93,0,0,0,.63-6.08,9.26,9.26,0,0,0-1.24-4.33,5.51,5.51,0,0,1-.81-2.5,51.45,51.45,0,0,1,.65-6.5l0.06-.33H36.38c-0.35,2.71-.71,5.74-0.71,6.83a6.73,6.73,0,0,0,1,3.11A7.88,7.88,0,0,1,37.73,24.5Z"/>
</svg>
