<svg xmlns="http://www.w3.org/2000/svg" viewBox="0 0 21.6 21.6">
    <title>icon-user</title>
    <path d="M3483.71,6048.84a3.82,3.82,0,1,0-3.4,0,5.08,5.08,0,0,0-3.39,4.78h1a4.09,4.09,0,0,1,8.18,0h1A5.08,5.08,0,0,0,3483.71,6048.84Zm-4.52-3.4a2.82,2.82,0,1,1,2.82,2.82A2.82,2.82,0,0,1,3479.19,6045.43Z"
          transform="translate(-3471.21 -6036.68)"/>
    <path d="M3482,6036.68a10.8,10.8,0,1,0,10.8,10.8A10.81,10.81,0,0,0,3482,6036.68Zm0,20.6a9.8,9.8,0,1,1,9.8-9.8A9.81,9.81,0,0,1,3482,6057.28Z"
          transform="translate(-3471.21 -6036.68)"/>
</svg>
