<svg xmlns="http://www.w3.org/2000/svg" viewBox="0 0 28.01 26.33">
    <title>icon-email</title>
    <path d="M744.23,887.85a2.18,2.18,0,0,0-2.8,2.32,0.89,0.89,0,0,0,.89,1,2.14,2.14,0,0,0,1.64-1.82Zm-1.65,6.33a4,4,0,0,1-4.06-4.19,4.9,4.9,0,0,1,4.9-5.15,3.72,3.72,0,0,1,3.9,3.88c0,2-1.13,3.19-2.39,3.19a1,1,0,0,1-1-1.18h-0.05a2.11,2.11,0,0,1-1.89,1.18,1.52,1.52,0,0,1-1.45-1.69,3.17,3.17,0,0,1,3.18-3.18,3.52,3.52,0,0,1,1.43.28l-0.46,2.43c-0.2,1,0,1.49.4,1.5,0.68,0,1.45-.9,1.45-2.45a3.07,3.07,0,0,0-3.25-3.34,4.12,4.12,0,0,0-4,4.45,3.35,3.35,0,0,0,3.45,3.62,4.17,4.17,0,0,0,2-.47l0.21,0.58A4.88,4.88,0,0,1,742.58,894.18Zm13.22-5.41-13,11h0l-5.64-4.68-7.64-6.34v15.12H755.8v-15.1h0Zm-26-.88,1.86,1.54v-2.76Zm2.71,2.23,5.19,4.33,5.08,4.24h0l10-8.55v-8.3H732.48v8.3Zm7.85-9.15h4.77l-2.37-1.57Zm13.32,8.5,1.87-1.58-1.87-1.24v2.82Zm3-1.85v17.1h-28v-17.1l3-2V881h7.15l4-2.59,3.9,2.59h7v4.66Zm-13.89,11-5.09-4.23,5.08,4.24h0Zm-5.63-3.57,5.64,4.68h0Z"
          transform="translate(-728.64 -878.39)"/>
</svg>
