<svg xmlns="http://www.w3.org/2000/svg" viewBox="0 0 17.21 17.21">
    <title>icon-gear</title>
    <path d="M449.62,204.14a3.15,3.15,0,1,1,3.15-3.15A3.15,3.15,0,0,1,449.62,204.14Zm7.88-1.59a0.69,0.69,0,0,0,.66-0.58,7.78,7.78,0,0,0,0-2,0.69,0.69,0,0,0-.66-0.58h-1.66a0.81,0.81,0,0,1-.74-0.46,1.8,1.8,0,0,1,0-1.28l1.17-1.17a0.65,0.65,0,0,0,0-.86L455,194.28a0.65,0.65,0,0,0-.86,0l-1.17,1.17a0.8,0.8,0,0,1-.84.2,1.82,1.82,0,0,1-.9-0.92v-1.66a0.69,0.69,0,0,0-.58-0.66,7.78,7.78,0,0,0-2,0,0.69,0.69,0,0,0-.58.66v1.66a0.81,0.81,0,0,1-.46.74,1.8,1.8,0,0,1-1.28,0l-1.17-1.17a0.65,0.65,0,0,0-.86,0l-1.38,1.38a0.65,0.65,0,0,0,0,.86l1.17,1.17a0.8,0.8,0,0,1,.2.84,1.83,1.83,0,0,1-.92.9h-1.66a0.69,0.69,0,0,0-.66.58,7.78,7.78,0,0,0,0,2,0.69,0.69,0,0,0,.66.58h1.66a0.81,0.81,0,0,1,.74.46,1.8,1.8,0,0,1,0,1.28l-1.17,1.17a0.65,0.65,0,0,0,0,.86l1.38,1.38a0.65,0.65,0,0,0,.86,0l1.17-1.17a0.81,0.81,0,0,1,.84-0.2,1.82,1.82,0,0,1,.9.92v1.66a0.69,0.69,0,0,0,.58.66,7.78,7.78,0,0,0,2,0,0.69,0.69,0,0,0,.58-0.66v-1.66a0.81,0.81,0,0,1,.46-0.74,1.8,1.8,0,0,1,1.28,0l1.17,1.17a0.65,0.65,0,0,0,.86,0l1.38-1.38a0.65,0.65,0,0,0,0-.86l-1.17-1.17a0.81,0.81,0,0,1-.2-0.84,1.82,1.82,0,0,1,.92-0.9h1.66Z"
          transform="translate(-441.02 -192.38)" style="opacity:0.4"/>
</svg>
