<svg xmlns="http://www.w3.org/2000/svg" viewBox="0 0 46.06 52.89">
    <defs>
        <linearGradient id="a" x1="260.83" y1="1782.97" x2="260.83" y2="1840.89" gradientUnits="userSpaceOnUse">
            <stop offset="0.01" stop-color="#92aabf"/>
            <stop offset="1" stop-color="#5a83a5"/>
        </linearGradient>
    </defs>
    <title>icon-wellness</title>
    <path style="fill:url(#a)"
          d="M254.21,1820.62l2.4,1.8-0.83,1.1a7.27,7.27,0,0,1-5.6,2.8H237.8v-3h12.38a4.23,4.23,0,0,0,3.23-1.64Zm21.67-10.78h8v3h-8a6.69,6.69,0,0,1-6.33-3.94l-2.17-4.32a4.06,4.06,0,0,0-.59-0.87l-6.57,13.18a1.57,1.57,0,0,0,.46,2l6.65,5a4.1,4.1,0,0,1,.49,6.11l-9,9.39-2.17-2.08,9-9.39a1.1,1.1,0,0,0-.13-1.64l-6.65-5a4.57,4.57,0,0,1-1.33-5.68l6.68-13.41-3.19-1.5-3.59-1.11a3.85,3.85,0,0,0-2.93.24c-3,1.66-8.56,4.28-8.8,4.4l-1.29-2.71c0.06,0,5.78-2.75,8.73-4.37l0.16-.08a7,7,0,0,1,5.18-.3l3.72,1.16,4.68,2.2a6.92,6.92,0,0,1,3.18,3.16l2.2,4.4A3.72,3.72,0,0,0,275.88,1809.83Zm-3.3-12.72a5.32,5.32,0,1,0-5.32-5.32A5.32,5.32,0,0,0,272.57,1797.11Zm0-7.64a2.32,2.32,0,1,1-2.32,2.32A2.32,2.32,0,0,1,272.57,1789.47Z"
          transform="translate(-237.8 -1786.47)"/>
</svg>
