<svg xmlns="http://www.w3.org/2000/svg" viewBox="0 0 29.87 65.01">
    <title>icon-question-mark</title>
    <path d="M40.79,60.65c0-15,16-16.16,16-29.4,0-6.57-5.28-11.78-13.07-11.78a19.85,19.85,0,0,0-9.94,2.88,1.8,1.8,0,0,1-2.43-.55l-0.1-.15a1.81,1.81,0,0,1,.53-2.52,22.26,22.26,0,0,1,11.84-3.49c10.3,0,17.19,6.76,17.19,15.71,0,15.16-16.2,16.25-16.2,29.31v2.09a1.92,1.92,0,0,1-1.92,1.92h0a1.92,1.92,0,0,1-1.92-1.92V60.65Zm1.92,14.43h0a2.64,2.64,0,0,1,2.64,2.64V78a2.64,2.64,0,0,1-2.64,2.64h0A2.64,2.64,0,0,1,40.07,78V77.72A2.64,2.64,0,0,1,42.71,75.08Z"
          transform="translate(-30.97 -15.64)"/>
</svg>
