<svg xmlns="http://www.w3.org/2000/svg" viewBox="0 0 18 18">
    <title>icon-edit</title>
    <path d="M7.82,2.73H2.18A1.45,1.45,0,0,0,.73,4.18V15.82a1.45,1.45,0,0,0,1.45,1.45H13.82a1.45,1.45,0,0,0,1.45-1.45V10.2a0.2,0.2,0,0,1,.2-0.2h0.36a0.17,0.17,0,0,1,.17.17v5.65A2.18,2.18,0,0,1,13.82,18H2.18A2.18,2.18,0,0,1,0,15.82V4.18A2.18,2.18,0,0,1,2.18,2H7.82A0.18,0.18,0,0,1,8,2.18V2.55A0.18,0.18,0,0,1,7.82,2.73Z"/>
    <path d="M8,10.38a0.38,0.38,0,0,1-.27-0.64l9.63-9.63a0.38,0.38,0,0,1,.53.53L8.26,10.27A0.37,0.37,0,0,1,8,10.38Z"/>
</svg>
