<svg xmlns="http://www.w3.org/2000/svg" viewBox="0 0 73 48.67">
    <title>icon-bank</title>
    <path d="M85,63V60H81V35h3.05a1.46,1.46,0,0,0,.52-2.81L52,19.43a1.43,1.43,0,0,0-1,0L18.39,32.17A1.47,1.47,0,0,0,18.91,35H23V60H17v3H15v5H88V63H85Zm-5-3H78V35h2V60ZM41,35V60H27V35H41Zm1,0h2V60H42V35Zm3,0H59V60H45V35Zm15,0h2V60H60V35Zm3,0H77V60H63V35ZM18.49,33.61a0.43,0.43,0,0,1,.26-0.5L51.32,20.36a0.44,0.44,0,0,1,.16,0,0.42,0.42,0,0,1,.16,0L84.21,33.1h0a0.45,0.45,0,0,1,.26.52,0.43,0.43,0,0,1-.42.39H18.91A0.43,0.43,0,0,1,18.49,33.61ZM24,35h2V60H24V35ZM18,61H84v2H18V61Zm69,6H16V64H87v3Z" transform="translate(-15 -19.33)"/>
    <path d="M51.08,24.71A2.92,2.92,0,1,0,54,27.62,2.92,2.92,0,0,0,51.08,24.71Zm0,4.83A1.92,1.92,0,1,1,53,27.62,1.92,1.92,0,0,1,51.08,29.54Z" transform="translate(-15 -19.33)"/>
</svg>
