<svg xmlns="http://www.w3.org/2000/svg" viewBox="0 0 51 49">
    <title>icon-paid-through</title>
    <path d="M38.16,10.19H13A1.9,1.9,0,0,0,11,12v0a1.71,1.71,0,0,0,1.44,1.82V37.37l1.46-1.45,2.9,2.89,2.9-2.89,2.9,2.89,2.89-2.89,2.89,2.89,2.89-2.89,2.89,2.89,2.86-2.89,1.41,1.45V14A1.75,1.75,0,0,0,40,12.13,1.87,1.87,0,0,0,38.16,10.19ZM12,12.1a0.92,0.92,0,0,1,.47-0.77v1.55A2.71,2.71,0,0,1,12,12.1ZM13,11.19h0ZM37.51,35h0l-0.43-.48-2.87,2.89-2.88-2.89-2.89,2.89-2.89-2.89-2.89,2.89-2.89-2.89-2.89,2.89L14,34.52,13.51,35V12.19h24V35Zm1-22.12V11.27A0.88,0.88,0,0,1,39,12s0,0,0,.06A2.71,2.71,0,0,1,38.49,12.88Z"/>
    <path d="M32.28,29.19H25a0.5,0.5,0,0,0,0,1h7.24A0.5,0.5,0,0,0,32.28,29.19Z"/>
    <path d="M34.35,29.55a0.5,0.5,0,0,0-.14.34,0.48,0.48,0,0,0,.82.34,0.49,0.49,0,0,0,0-.68A0.51,0.51,0,0,0,34.35,29.55Z"/>
    <path d="M34.7,22.19H27.49a0.5,0.5,0,0,0,0,1h7.24A0.5,0.5,0,0,0,34.7,22.19Z"/>
    <path d="M34.7,26.19H29.88a0.5,0.5,0,0,0,0,1H34.7A0.5,0.5,0,0,0,34.7,26.19Z"/>
    <path d="M25,27h1a0.5,0.5,0,0,0,0-1H25A0.5,0.5,0,0,0,25,27Z"/>
    <path d="M32.77,19.69a0.5,0.5,0,0,0-.48-0.5H25a0.5,0.5,0,0,0,0,1h7.24A0.5,0.5,0,0,0,32.77,19.69Z"/>
    <path d="M34.35,19.37a0.5,0.5,0,0,0-.14.34,0.48,0.48,0,0,0,1,0h0A0.48,0.48,0,0,0,34.35,19.37Z"/>
    <path d="M25.19,22.79a0.49,0.49,0,0,0,0,.68,0.48,0.48,0,0,0,.68,0,0.49,0.49,0,0,0,0-.69A0.51,0.51,0,0,0,25.19,22.79Z"/>
    <path d="M28.29,26.86a0.5,0.5,0,0,0,.14-0.34,0.49,0.49,0,0,0-.14-0.34,0.48,0.48,0,1,0-.34.82A0.51,0.51,0,0,0,28.29,26.86Z"/>
    <path d="M18.47,19.77V20.3a1.63,1.63,0,0,0-1.46.81,1.7,1.7,0,0,0-.43,1.25,1.85,1.85,0,0,0,.74,1.2l1.15,0.84V27a1.13,1.13,0,0,1-1.08-1.18,1.06,1.06,0,0,1,0-.18,0.53,0.53,0,0,0-.53-0.48,0.43,0.43,0,0,0-.41.45v0a2.59,2.59,0,0,0,2,2.36v0.42a0.5,0.5,0,1,0,1,0V28a9.57,9.57,0,0,0,1.24-.81A1.63,1.63,0,0,0,21,26a1.67,1.67,0,0,0-.58-1.2l-1-.83V21.3c0,0.2.85,0.73,0.85,1.36a0.44,0.44,0,0,0,.4.48h0a0.57,0.57,0,0,0,.57-0.48,2.45,2.45,0,0,0-1.84-2.36V19.77A0.5,0.5,0,0,0,18.47,19.77Zm-0.18,3.39-0.48-.37a0.77,0.77,0,0,1-.3-0.54,0.71,0.71,0,0,1,.16-0.53,1.49,1.49,0,0,1,.62-0.43v1.87Zm1,2,0.48,0.37a0.77,0.77,0,0,1,.3.54,0.73,0.73,0,0,1-.16.53,1.49,1.49,0,0,1-.62.43V25.14Z"/>
    <path d="M27,15.19H26C26,16.19,27,16.19,27,15.19Z"/>
    <path d="M30.84,15.19h-1C29.87,16.19,30.84,16.19,30.84,15.19Z"/>
    <path d="M28.91,15.19h-1C27.94,16.19,28.91,16.19,28.91,15.19Z"/>
    <path d="M34.7,15.19h-1C33.73,16.19,34.7,16.19,34.7,15.19Z"/>
    <path d="M32.77,15.19h-1C31.8,16.19,32.77,16.19,32.77,15.19Z"/>
    <path d="M21.19,15.19h-1C20.22,16.19,21.19,16.19,21.19,15.19Z"/>
    <path d="M23.12,15.19h-1C22.15,16.19,23.12,16.19,23.12,15.19Z"/>
    <path d="M25,15.19H24C24.08,16.19,25,16.19,25,15.19Z"/>
    <path d="M19.26,15.19h-1C18.3,16.19,19.26,16.19,19.26,15.19Z"/>
    <path d="M17.33,15.19h-1C16.37,16.19,17.33,16.19,17.33,15.19Z"/>
    <path d="M36.63,15.19h-1C35.66,16.19,36.63,16.19,36.63,15.19Z"/>
    <path d="M15.4,15.19h-1C14.44,16.19,15.4,16.19,15.4,15.19Z"/>
</svg>
