<svg xmlns="http://www.w3.org/2000/svg" viewBox="0 0 16.16 39.26">
    <title>icon-gender</title>
    <path d="M278.15,997.08a3.17,3.17,0,1,0-3.17,3.17A3.17,3.17,0,0,0,278.15,997.08Z"
          transform="translate(-267.77 -993.91)"/>
    <path d="M281.32,1014.23a1.34,1.34,0,1,0,2.54-.85l-3-9.31a4.16,4.16,0,0,0-3.81-3h-1.68v30.48a1.49,1.49,0,1,0,3,0v-11h4.23l-5.08-15.24h0.85Z"
          transform="translate(-267.77 -993.91)"/>
    <path d="M267.77,1005.34v9.74a1.27,1.27,0,0,0,2.54,0v-9.74h0.85v26.25c0,2.12,3.39,2.12,3.39,0v-30.48h-3C269.46,1001.11,267.77,1003.22,267.77,1005.34Z"
          transform="translate(-267.77 -993.91)"/>
</svg>
