<svg xmlns="http://www.w3.org/2000/svg" viewBox="0 0 19.92 19.92">
    <title>icon-info</title>
    <path d="M49.88,47.84a0.81,0.81,0,1,0,0-1.63,0.8,0.8,0,0,0-.82.82A0.78,0.78,0,0,0,49.88,47.84Z"
          transform="translate(-39.95 -41.29)"/>
    <path d="M50.57,55.79V49.65A0.54,0.54,0,0,0,50,49.07H49.77a0.5,0.5,0,0,0-.52.48v6.35a0.39,0.39,0,0,0,.42.4h0.49A0.43,0.43,0,0,0,50.57,55.79Z"
          transform="translate(-39.95 -41.29)"/>
    <path d="M49.91,41.29a10,10,0,1,0,10,10A10,10,0,0,0,49.91,41.29Zm0,18.26a8.3,8.3,0,1,1,8.3-8.3A8.3,8.3,0,0,1,49.91,59.55Z"
          transform="translate(-39.95 -41.29)"/>
</svg>
