<svg xmlns="http://www.w3.org/2000/svg" viewBox="0 0 39.36 39">
    <defs>
        <linearGradient id="a" x1="595.17" y1="1503.07" x2="595.17" y2="1545.78" gradientUnits="userSpaceOnUse">
            <stop offset="0.01" stop-color="#92aabf"/>
            <stop offset="1" stop-color="#5a83a5"/>
        </linearGradient>
    </defs>
    <title>icon-fmla-personal</title>
    <path style="fill:url(#a)"
          d="M595.87,1544.65h3a6.49,6.49,0,1,1,13,0h3a9.5,9.5,0,0,0-5.62-8.65,6.91,6.91,0,0,0-8.35-11l0,0a15.49,15.49,0,0,0-4.52-2.59,9.25,9.25,0,1,0-10.84,0,15.54,15.54,0,0,0-10.08,14.52h3a12.53,12.53,0,0,1,20.44-9.72,6.89,6.89,0,0,0,2.08,9A9.49,9.49,0,0,0,595.87,1544.65Zm-4.92-23.5a6.25,6.25,0,1,1,6.25-6.25A6.25,6.25,0,0,1,591,1521.15Zm14,6a3.92,3.92,0,1,1-3.92,3.92A3.92,3.92,0,0,1,605,1527.15Z"
          transform="translate(-575.49 -1505.65)"/>
</svg>
