<svg xmlns="http://www.w3.org/2000/svg" xmlns:xlink="http://www.w3.org/1999/xlink" viewBox="0 0 28 34.42">
    <defs>
        <linearGradient id="a" x1="425" y1="215.82" x2="425" y2="183.45" gradientUnits="userSpaceOnUse">
            <stop offset="0" stop-color="#007fa7"/>
            <stop offset="1" stop-color="#3cdbe5"/>
        </linearGradient>
        <linearGradient id="b" x1="9.5" y1="16.08" x2="9.5" y2="34.22" gradientUnits="userSpaceOnUse">
            <stop offset="0" stop-color="#fff"/>
            <stop offset="1" stop-color="#fff" stop-opacity="0.5"/>
        </linearGradient>
        <linearGradient id="c" x1="18.5" y1="16.08" x2="18.5" y2="34.22" xlink:href="#b"/>
        <linearGradient id="d" x1="20" y1="16.76" x2="20" y2="20.38" xlink:href="#b"/>
        <linearGradient id="e" x1="8" y1="16.76" x2="8" y2="20.38" xlink:href="#b"/>
        <linearGradient id="f" x1="14" y1="16.76" x2="14" y2="20.38" xlink:href="#b"/>
        <linearGradient id="g" x1="20" y1="11.76" x2="20" y2="15.38" xlink:href="#b"/>
        <linearGradient id="h" x1="8" y1="11.76" x2="8" y2="15.38" xlink:href="#b"/>
        <linearGradient id="i" x1="14" y1="11.76" x2="14" y2="15.38" xlink:href="#b"/>
        <linearGradient id="j" x1="20" y1="5.76" x2="20" y2="9.38" xlink:href="#b"/>
        <linearGradient id="k" x1="8" y1="5.76" x2="8" y2="9.38" xlink:href="#b"/>
        <linearGradient id="l" x1="14" y1="5.76" x2="14" y2="9.38" xlink:href="#b"/>
    </defs>
    <title>icon-building</title>
    <path d="M439,217H411V184.44a1.65,1.65,0,0,1,1.56-1.86l25,0.06c1,0,1.44.84,1.44,1.86V217Z"
          transform="translate(-411 -182.58)" style="fill:url(#a)"/>
    <rect x="6" y="24.42" width="7" height="10" style="fill:url(#b)"/>
    <rect x="15" y="24.42" width="7" height="10" style="fill:url(#c)"/>
    <rect x="18" y="18.42" width="4" height="2" style="fill:url(#d)"/>
    <rect x="6" y="18.42" width="4" height="2" style="fill:url(#e)"/>
    <rect x="12" y="18.42" width="4" height="2" style="fill:url(#f)"/>
    <rect x="18" y="13.42" width="4" height="2" style="fill:url(#g)"/>
    <rect x="6" y="13.42" width="4" height="2" style="fill:url(#h)"/>
    <rect x="12" y="13.42" width="4" height="2" style="fill:url(#i)"/>
    <rect x="18" y="7.42" width="4" height="2" style="fill:url(#j)"/>
    <rect x="6" y="7.42" width="4" height="2" style="fill:url(#k)"/>
    <rect x="12" y="7.42" width="4" height="2" style="fill:url(#l)"/>
</svg>
