<svg xmlns="http://www.w3.org/2000/svg" viewBox="0 0 20.11 28.59">
    <title>icon-birthday</title>
    <path d="M743.07,702.67a4,4,0,1,0-4-4A4,4,0,0,0,743.07,702.67Z" transform="translate(-733.02 -694.59)"/>
    <path d="M752.65,709.48L747.19,704a2.32,2.32,0,0,0-1.72-.71h-4.85a2.24,2.24,0,0,0-1.69.71l-5.4,5.42a1.39,1.39,0,1,0,2,1.9l3.26-3.29v3.1h8.51V708l3.36,3.35A1.37,1.37,0,1,0,752.65,709.48Z"
          transform="translate(-733.02 -694.59)"/>
    <path d="M747.29,712.7l-3.21,3.21,2.37,2.35L744,720.68a1.42,1.42,0,1,0,2,2l3.81-4a2.41,2.41,0,0,0,.18-3.26Z"
          transform="translate(-733.02 -694.59)"/>
    <path d="M739.65,718.26l2.35-2.35-3.21-3.21-2.72,2.74a2.41,2.41,0,0,0,.16,3.26l3.82,4a1.42,1.42,0,1,0,2-2Z"
          transform="translate(-733.02 -694.59)"/>
</svg>
