<svg xmlns="http://www.w3.org/2000/svg" viewBox="0 0 51 49">
  <defs>
    <linearGradient id="linear-gradient" x1="25.5" y1="49" x2="25.5" gradientTransform="matrix(1, 0, 0, -1, 0, 49)" gradientUnits="userSpaceOnUse">
      <stop offset="0" stop-color="#69dbb7"/>
      <stop offset="1" stop-color="#0090a8"/>
    </linearGradient>
  </defs>
  <title>icon-statement</title>
  <path d="M47,42.29V7c0-4-3.7-7-7.8-7H0V3.33c3,0,5,1.78,5,4v35C5,46.13,8.21,49,12.33,49H51V46.25A4.12,4.12,0,0,1,47,42.29Z" style="fill: url(#linear-gradient)"/>
  <path d="M26.57,22.5a19.26,19.26,0,0,1-2.71-.09C21.32,22,20,21.15,20,19.85s1.84-2.7,5.26-2.7a7.07,7.07,0,0,1,5.43,2.1l2.14-1.75a10.42,10.42,0,0,0-6.14-2.94V11.5h-3v3.08c-4,.42-6.43,2.5-6.43,5.35,0,1.58.81,4.36,6.07,5.3,1.07,0.19,3,.3,3.12.31,2.7,0,4.72,1.56,4.72,3,0,1.72-2.32,3-5.52,3-3.45,0-5.56-1.74-6.06-3.35L17,29c0.8,2.51,3.72,4.51,6.72,5v3.5h3V34.13c4-.26,7.27-2.68,7.27-5.82S30.57,22.5,26.57,22.5Z" style="fill: #c2e9e7"/>
</svg>
