<svg xmlns="http://www.w3.org/2000/svg" viewBox="0 0 131 34.02">
    <title>icon-subsidiary</title>
    <path d="M39.27,19.08a10,10,0,0,0,6-9.18C45.28,4.44,41.14,0,36,0a9.63,9.63,0,0,0-9.34,9.9,9.93,9.93,0,0,0,5.89,9.18,13.21,13.21,0,0,0-10.17,6.49,11.19,11.19,0,0,0-5.76-3.34,8,8,0,0,0,3.72-6.82A7.73,7.73,0,0,0,12.8,7.5a7.73,7.73,0,0,0-7.51,7.92,7.8,7.8,0,0,0,3.44,6.8A11.17,11.17,0,0,0,0,32.85V34H2V32.85A9.22,9.22,0,0,1,11,24h3.58a8.82,8.82,0,0,1,6.57,3.5A17.8,17.8,0,0,0,20,32.34V34h2V32.34C22,26.09,27.54,21,33.73,21h4.61C44.49,21,49,26.09,49,32.34V34h2V32.34A13.06,13.06,0,0,0,39.27,19.08Zm-32-3.67A5.74,5.74,0,0,1,12.8,9.49a5.73,5.73,0,0,1,5.51,5.93,5.73,5.73,0,0,1-5.51,5.93A5.74,5.74,0,0,1,7.29,15.41ZM28.66,9.9A7.67,7.67,0,0,1,36,2,7.67,7.67,0,0,1,43.4,9.9,7.67,7.67,0,0,1,36,17.81,7.67,7.67,0,0,1,28.66,9.9Z"/>
    <path d="M119.44,19.08a10.1,10.1,0,0,0,6.09-9.18c0-5.46-4.1-9.9-9.27-9.9s-9.32,4.44-9.32,9.9a9.94,9.94,0,0,0,5.9,9.18,13.2,13.2,0,0,0-10.17,6.49,11.18,11.18,0,0,0-5.76-3.34,8,8,0,0,0,3.72-6.82,7.52,7.52,0,1,0-15,0c0,2.89,1.07,5.42,3.28,6.8-4.77,1-8.9,5.47-8.9,10.64V34h2V32.85c0-4.8,4.73-8.84,9.34-8.84h3.58c2.45,0,4.66,1.39,6.4,3.5A16,16,0,0,0,100,32.34V34h2V32.34C102,26.09,107.87,21,114.06,21h4.61C124.82,21,129,26.09,129,32.34V34h2V32.34C131,25.4,126.14,19.69,119.44,19.08ZM87.63,15.41a5.52,5.52,0,1,1,11,0,5.52,5.52,0,1,1-11,0ZM109,9.9a7.39,7.39,0,1,1,14.75,0A7.39,7.39,0,1,1,109,9.9Z"
          fill="#fff"/>
    <path d="M72.07,19.31l-4.87-4.85-1.41,1.4L68.95,19H58v2H68.95l-3.17,3.15,1.41,1.4,4.88-4.85A1,1,0,0,0,72.07,19.31Z"
          fill="#fff"/>
</svg>
