<svg xmlns="http://www.w3.org/2000/svg" viewBox="0 0 35 35">
    <title>icon-expand</title>
    <path d="M26.43,11.45H8.5A1.5,1.5,0,0,0,7,13v5s0,0.05,0,.08a1.5,1.5,0,0,0,1.55,1.45H26.46A1.5,1.5,0,0,0,27.93,18V13A1.5,1.5,0,0,0,26.43,11.45ZM26.93,18a0.5,0.5,0,0,1-.5.5H8.55A0.5,0.5,0,0,1,8,18V13a0.5,0.5,0,0,1,.5-0.5H26.43a0.5,0.5,0,0,1,.5.5v5Z"/>
    <path d="M11.61,24H7.55a0.5,0.5,0,0,0,0,1h4.06A0.5,0.5,0,1,0,11.61,24Z"/>
    <path d="M27.43,24H14.21a0.5,0.5,0,0,0,0,1H27.43A0.5,0.5,0,0,0,27.43,24Z"/>
</svg>
