<svg xmlns="http://www.w3.org/2000/svg" viewBox="0 0 18.57 18.57">
    <title>icon-dollar-circle</title>
    <path d="M45.76,38.78A9.28,9.28,0,1,0,55,48.07,9.29,9.29,0,0,0,45.76,38.78Zm0,17.57A8.28,8.28,0,1,1,54,48.07,8.29,8.29,0,0,1,45.76,56.35Z" transform="translate(-36.47 -38.78)"/>
    <path d="M46.17,47.67l0.45-3.92a4.87,4.87,0,0,1,1.33.57l0.37-.63A5.45,5.45,0,0,0,46.7,43l0.15-1.32-0.73-.08L46,42.94h0a2.72,2.72,0,0,0-2.72,2.42c0,1.13.71,2,2.16,2.76L44.9,52.4a4.06,4.06,0,0,1-1.44-.59l-0.07,0L43,52.39l0.07,0a4.7,4.7,0,0,0,1.73.69l-0.15,1.3,0.73,0.08,0.15-1.32h0c1.53,0,3.11-1,3.11-2.61C48.69,49.26,48,48.49,46.17,47.67Zm-0.7-.34a2.36,2.36,0,0,1-1.52-2,2,2,0,0,1,1.94-1.68Zm0.15,5.12,0.46-4c1.57,0.72,1.87,1.3,1.87,2.15C48,51.86,46.61,52.44,45.63,52.46Z" transform="translate(-36.47 -38.78)"/>
</svg>
