<svg xmlns="http://www.w3.org/2000/svg" viewBox="0 0 51 49">
    <title>icon-dollar</title>
    <path d="M26.77,22.19a23.13,23.13,0,0,1-3.19-.1c-3-.47-4.54-1.45-4.54-3S21.2,16,25.22,16a8.41,8.41,0,0,1,6.39,2.42l2.52-2A12.37,12.37,0,0,0,26.91,13V9.5H23.38v3.55c-4.71.48-7.57,2.88-7.57,6.17,0,1.82,1,5,7.15,6.12,1.26,0.22,3.53.35,3.67,0.36,3.18,0,5.56,1.8,5.56,3.46,0,2-2.73,3.46-6.5,3.46-4.06,0-6.55-2-7.13-3.87l-3,.93c0.94,2.9,4.38,5.2,7.91,5.77v4h3.53V35.61c4.71-.3,8.56-3.09,8.56-6.72S31.47,22.19,26.77,22.19Z"/>
</svg>
