<svg xmlns="http://www.w3.org/2000/svg" viewBox="0 0 13.65 13.65">
    <title>icon-lock</title>
    <path d="M50.47,49.94a1.7,1.7,0,0,0-.85,3.18v0.24a0.85,0.85,0,1,0,1.71,0V53.12A1.7,1.7,0,0,0,50.47,49.94Z"
          transform="translate(-43.65 -43.12)"/>
    <path d="M55.64,47.56a5.23,5.23,0,0,0-10.35,0,2.56,2.56,0,0,0-1.65,2.38v4.27a2.56,2.56,0,0,0,2.56,2.56h8.53a2.56,2.56,0,0,0,2.56-2.56V49.94A2.56,2.56,0,0,0,55.64,47.56Zm-5.17-2.73a3.5,3.5,0,0,1,3.39,2.56H47.08A3.5,3.5,0,0,1,50.47,44.83Zm5.12,9.38a0.85,0.85,0,0,1-.85.85H46.21a0.85,0.85,0,0,1-.85-0.85V49.94a0.85,0.85,0,0,1,.85-0.85h8.53a0.85,0.85,0,0,1,.85.85v4.27Z"
          transform="translate(-43.65 -43.12)"/>
</svg>
