<svg xmlns="http://www.w3.org/2000/svg" viewBox="0 0 51 49">
    <title>icon-phone-outline</title>
    <path d="M34.16,10.45a1,1,0,0,0-.74-0.21H33.25l-0.1.14c-0.49.71-3.35,5-3.8,5.72v0.25a1.68,1.68,0,0,0,.22.77c0.14,0.43.88,1.61,1.44,2.6l0.44,0.78-0.52.73a46.57,46.57,0,0,1-8.51,8.49l-0.74.52-0.78-.44-2.6-1.43a1.94,1.94,0,0,0-.79-0.23H17.29c-0.8.52-5,3.28-5.72,3.78l-0.14.1v0.32a1.13,1.13,0,0,0,.21.65c1,1.35,4.56,5.42,5.39,5.72H17.1L17,38.76h0.08c3.52-.17,8.43-3.22,13.83-8.6s8.46-10.29,8.63-13.82V16.17A29.33,29.33,0,0,0,34.16,10.45Zm-3.88,6.24a1.1,1.1,0,0,1-.12-0.3c0.58-.9,2.83-4.27,3.56-5.35,0.68,0.56,1.31,1.15,1.93,1.75l-0.08-.06-4.19,5.91ZM17.6,29a1.48,1.48,0,0,1,.3.12L19.49,30l-6.06,3.91q-0.59-.71-1.14-1.44C13.33,31.72,16.69,29.53,17.6,29Zm12.81,0.52c-5.2,5.19-9.88,8.15-13.18,8.36A38.93,38.93,0,0,1,14,34.5l6.33-4.08,0.12,0.06,1.3,0.7,1.17-.82a47.2,47.2,0,0,0,8.71-8.68l0.82-1.17-0.6-1.08,4.34-6.13a32.64,32.64,0,0,1,2.62,3C38.59,19.62,35.61,24.28,30.41,29.47Z"/>
</svg>
