<svg xmlns="http://www.w3.org/2000/svg" viewBox="0 0 60.7 60.7">
    <title>icon-discontinue-coverage</title>
    <path d="M30.4,60.7a9.75,9.75,0,0,1-5.06-1.88l-.57-.37c-6.06-4-16.18-10.56-19.62-15.1C2.8,40.45.52,23.22,0,9.33V9.08S0,9,0,9A5.34,5.34,0,0,1,3.55,4c7-2.42,17.5-4,26.8-4S50.17,1.56,57.14,4A5.35,5.35,0,0,1,60.7,9v.34c-.5,13.87-2.79,31.1-5.13,34C52.12,47.89,42,54.5,35.94,58.45l-.57.37A9.74,9.74,0,0,1,30.4,60.7ZM7.82,41.1l.1.12c3,4,13.27,10.72,18.76,14.3l.57.37A6.39,6.39,0,0,0,30.4,57.2a6.5,6.5,0,0,0,3.06-1.31l.57-.37c5.49-3.58,15.72-10.26,18.76-14.3l.1-.12c1-1.54,3.68-14.45,4.31-31.89V8.93A1.84,1.84,0,0,0,56,7.27C49.37,5,39.3,3.5,30.35,3.5S11.34,5,4.71,7.28A1.86,1.86,0,0,0,3.5,9v.22C4.14,26.64,6.83,39.56,7.82,41.1ZM52.94,41l0,0ZM7.76,41l0,0Z"/>
    <path d="M33.66,26.38l7.44-7.44a2.34,2.34,0,1,0-3.31-3.31l-7.44,7.44-7.44-7.44a2.34,2.34,0,1,0-3.31,3.31L27,26.38,19.6,33.82a2.34,2.34,0,1,0,3.31,3.31l7.44-7.44,7.44,7.44a2.34,2.34,0,1,0,3.31-3.31Z"/>
</svg>
