<svg xmlns="http://www.w3.org/2000/svg" viewBox="0 0 31 31">
    <title>icon-employee-id</title>
    <path d="M276.76,723.39h-21a5,5,0,0,1-5-5v-21a5,5,0,0,1,5-5h21a5,5,0,0,1,5,5v21A5,5,0,0,1,276.76,723.39Zm-21-29a3,3,0,0,0-3,3v21a3,3,0,0,0,3,3h21a3,3,0,0,0,3-3v-21a3,3,0,0,0-3-3h-21Z"
          transform="translate(-250.76 -692.39)"/>
    <path d="M260.29,703H262v9.23h-1.68V703Z" transform="translate(-250.76 -692.39)"/>
    <path d="M264.31,703h3.15c2.85,0,4.71,1.69,4.71,4.6a4.33,4.33,0,0,1-4.71,4.63h-3.15V703Zm3.06,7.79a3.17,3.17,0,0,0,0-6.34H266v6.34h1.38Z"
          transform="translate(-250.76 -692.39)"/>
</svg>
