<svg xmlns="http://www.w3.org/2000/svg" viewBox="0 0 32 36">
    <title>icon-employee-profile</title>
    <path d="M48.11,50.34A8,8,0,0,0,42.5,58h.94a7.06,7.06,0,1,1,14.12,0h.94a8,8,0,0,0-5.61-7.66,5.3,5.3,0,1,0-4.78,0Zm2.39-9.06a4.36,4.36,0,1,1-4.36,4.36A4.36,4.36,0,0,1,50.5,41.28Z"
          transform="translate(-34.5 -32)"/>
    <path d="M44.88,32A10.27,10.27,0,0,0,34.5,42.13V68H56.12A10.27,10.27,0,0,0,66.5,57.87V32ZM65.51,57.87A9.29,9.29,0,0,1,56.12,67H35.49V42.13A9.29,9.29,0,0,1,44.88,33H65.51Z"
          transform="translate(-34.5 -32)"/>
</svg>
