<svg xmlns="http://www.w3.org/2000/svg" viewBox="0 0 14.58 14.99">
    <title>icon-bell</title>
    <path d="M57.45,56H56V49.15a5.47,5.47,0,0,0-4.22-5.41,1.26,1.26,0,0,0-.25-0.56,1.32,1.32,0,0,0-1.81,0,1.37,1.37,0,0,0-.35.56A5.6,5.6,0,0,0,45,49.15V56H43.87a0.5,0.5,0,0,0,0,1h5.51a0.17,0.17,0,0,1,.08.11,0.94,0.94,0,0,0,.28.35,1.25,1.25,0,0,0,.92.34,1.3,1.3,0,0,0,.92-0.4,0.76,0.76,0,0,0,.28-0.29A0.2,0.2,0,0,1,51.94,57h5.51A0.5,0.5,0,0,0,57.45,56ZM46,49.15a4.5,4.5,0,1,1,9,0V56H46V49.15Z" transform="translate(-43.37 -42.81)"/>
</svg>
