<svg xmlns="http://www.w3.org/2000/svg" viewBox="0 0 35.47 36.63">
    <title>icon-language</title>
    <path d="M279.65,791.41A3.85,3.85,0,0,1,278,789a3.26,3.26,0,0,1,.48-2h0.85v-2H255.77a3.91,3.91,0,0,0-3.95,3.87v0.75a3.76,3.76,0,0,0,.06.62h-0.06v6h0.3a11.61,11.61,0,0,0,0,20.32v2.08l0.07,0.17a4.21,4.21,0,0,0,1,1.52,5.89,5.89,0,0,0,3.6,1.27h24.84V791.41h-1.93Zm-25.82-2.62a1.91,1.91,0,0,1,1.95-1.87h20.47a4.76,4.76,0,0,0,.6,4.49H255.77a1.91,1.91,0,0,1-1.95-1.87V788.8Zm-6.69,18.05h3.07a17.17,17.17,0,0,0,.55,3.94h-2.66A10.56,10.56,0,0,1,247.13,806.85ZM256,796.12a15.46,15.46,0,0,0-1.25,4.79h-2.64A7.93,7.93,0,0,1,256,796.12Zm-1.37,5.79c-0.13,1.27-.2,2.61-0.21,3.94H251.2a16.29,16.29,0,0,1,.58-3.94h2.84Zm8.75,0a16.29,16.29,0,0,1,.58,3.94h-3.21c0-1.24-.09-2.6-0.23-3.94h2.86Zm-3-1a15.87,15.87,0,0,0-1.25-4.79,7.91,7.91,0,0,1,3.91,4.79H260.4Zm-1.25,15.67a15.87,15.87,0,0,0,1.25-4.8h2.66A7.91,7.91,0,0,1,259.15,816.58Zm1.37-5.8c0.14-1.34.22-2.7,0.23-3.94H264a16.28,16.28,0,0,1-.58,3.94h-2.86Zm-1,0h-3.9c-0.13-1.16-.2-2.48-0.22-3.94h4.34C259.74,808.31,259.66,809.63,259.53,810.79Zm0.22-4.94h-4.34c0-1.46.09-2.78,0.22-3.94h3.9C259.66,803.07,259.74,804.38,259.75,805.85Zm-9.55,0h-3.07a10.56,10.56,0,0,1,1-3.94h2.66A17.17,17.17,0,0,0,250.2,805.85Zm1,1h3.21c0,1.33.08,2.67,0.21,3.94h-2.84A16.28,16.28,0,0,1,251.2,806.85Zm3.54,4.94a15.46,15.46,0,0,0,1.25,4.79,7.93,7.93,0,0,1-3.89-4.79h2.64Zm1,0h3.65c-0.47,3.35-1.32,5.13-1.83,5.13S256.23,815.14,255.76,811.79Zm8.35,0h2.44a10.55,10.55,0,0,1-5,4.35A11.14,11.14,0,0,0,264.11,811.79Zm3-1h-2.66a17.17,17.17,0,0,0,.55-3.94H268A10.56,10.56,0,0,1,267.08,810.79ZM265,805.85a17.17,17.17,0,0,0-.55-3.94h2.66a10.56,10.56,0,0,1,1,3.94H265Zm-0.86-4.94a11.14,11.14,0,0,0-2.61-4.35,10.55,10.55,0,0,1,5,4.35h-2.44Zm-4.7,0h-3.65c0.47-3.35,1.32-5.13,1.82-5.13S258.94,797.56,259.41,800.91Zm-5.74-4.35a11.14,11.14,0,0,0-2.61,4.35h-2.44A10.55,10.55,0,0,1,253.67,796.55Zm-5,15.23h2.44a11.14,11.14,0,0,0,2.61,4.35A10.55,10.55,0,0,1,248.62,811.79Zm31,7.77H256.76a4,4,0,0,1-2.23-.71,2.13,2.13,0,0,1-.44-0.65v-0.83a11.34,11.34,0,0,0,3.5.55,11.57,11.57,0,0,0,0-23.14,11.32,11.32,0,0,0-3.76.65v-2.54a4,4,0,0,0,1.95.52h23.81v26.14Z"
          transform="translate(-246.11 -784.93)"/>
</svg>
