<svg xmlns="http://www.w3.org/2000/svg" viewBox="0 0 51 49">
    <title>icon-earning</title>
    <path d="M34.5,13V10h-3v3h-12V10h-3v3h-6V39h30V13h-6Zm3,23h-24V16h3v2h3V16h12v2h3V16h3V36Z"/>
    <path d="M25.92,25h0a4,4,0,0,1-1.16.12c-1.09-.19-1.64-0.46-1.64-1S23.91,23,25.37,23a3,3,0,0,1,2.33.92l0.67-.74c-0.62-.72-0.87-1.12-2.87-1.22V21h-1v0.93c-1,.18-2.65,1.07-2.65,2.29,0,0.68.4,1.87,2.65,2.27,0.46,0.08,1.29.13,1.36,0.13,1.16,0,2,.67,2,1.26s-1,1.27-2.36,1.27a2.56,2.56,0,0,1-2.59-1.44l-1.22.34a4,4,0,0,0,2.78,2.18V32h1V30.3c2-.11,3.35-1.3,3.35-2.64A2.83,2.83,0,0,0,25.92,25Z"/>
</svg>
