<svg xmlns="http://www.w3.org/2000/svg" xmlns:xlink="http://www.w3.org/1999/xlink" viewBox="0 0 59 59.52">
    <defs>
        <linearGradient id="a" x1="10.6" y1="56.31" x2="10.6" y2="0.27" gradientUnits="userSpaceOnUse">
            <stop offset="0" stop-color="#ee4966"/>
            <stop offset="1" stop-color="#ffae41"/>
        </linearGradient>
        <linearGradient id="b" x1="3371.22" y1="2665.87" x2="3371.22" y2="2609.83" xlink:href="#a"/>
        <linearGradient id="c" x1="18.28" y1="56.31" x2="18.28" y2="0.27" xlink:href="#a"/>
        <linearGradient id="d" x1="3383.95" y1="2665.87" x2="3383.95" y2="2609.83" xlink:href="#a"/>
    </defs>
    <title>icon-fall</title>
    <circle style="fill:url(#a);" cx="10.6" cy="11.51" r="6.29"/>
    <path style="fill:url(#b);"
          d="M3351.61,2633.16a0.93,0.93,0,0,0-.33.72l-1.07,10.57a0.93,0.93,0,0,0,.3.68l8.07,7.47,1.27-1.37-5.69-8.2,1-4.11,6.87,4.9c2.24,1.75,3.66,2.47,6.91,2.26l13-.83,9,8.08,1.3-1.34-9-10.18a0.93,0.93,0,0,0-.78-0.25L3370,2639.5l-6.32-8.31,4.37-10.65a0.93,0.93,0,0,0,.15-0.77l-4-10.21-1.81.44,2.33,9.21-4.1,6.38Z"
          transform="translate(-3340.68 -2609.56)"/>
    <polygon style="fill:url(#c);" points="0 53.44 0 55.44 36.55 55.44 35.89 53.44 0 53.44"/>
    <path style="fill:url(#d);"
          d="M3399.68,2663h-17.56l-2.07-9.77a3.06,3.06,0,0,0-.6-0.74h0l-3.61-4.4-7.62.66,8.61,5.87,0.52,0.54,4.13,13.91,1.75-.68-0.71-3.4h17.17v-2Z"
          transform="translate(-3340.68 -2609.56)"/>
</svg>
