<svg xmlns="http://www.w3.org/2000/svg" viewBox="0 0 44 47.67">
    <title>icon-thumbs-up</title>
    <path d="M42.48,24.78a2.83,2.83,0,0,1-1.09-2.87,4.74,4.74,0,0,0-1-3.88,5,5,0,0,0-3.86-1.6H30.86l.41-.62.49-.72a11.43,11.43,0,0,0,.64-1c.26-.49.53-1,.8-1.44a34.26,34.26,0,0,0,2-3.89,7.54,7.54,0,0,0-.63-6.89A3.41,3.41,0,0,0,31.7,0a3.73,3.73,0,0,0-3.19,1.91,21.91,21.91,0,0,1-4,5C23,8.17,21.36,9.41,19.81,10.6,18,12,16.06,13.43,14.33,15c-3.26,2.93-6.5,4-10.19,3.47a8.41,8.41,0,0,0-1.6,0H1.9c-1.28,0-1.9.61-1.9,1.79,0,5.63,0,11.57.07,18.13a1.81,1.81,0,0,0,.46,1.36A2.31,2.31,0,0,0,2,40.17H7.29a3.19,3.19,0,0,1,2.82,1.42c3.26,4.25,7.28,6.24,12.32,6.07,2.51-.09,5.05-.06,7.52,0h3.62a5.39,5.39,0,0,0,4.12-1.46,5.64,5.64,0,0,0,1.15-4.36,2.62,2.62,0,0,1,.73-1.94,5.42,5.42,0,0,0,1.92-4.79,2.79,2.79,0,0,1,1-2.61A5.28,5.28,0,0,0,44,28.55,5.11,5.11,0,0,0,42.48,24.78Zm-5.73-6h0c2.26,0,2.31,1.86,2.32,2.7a2.83,2.83,0,0,1-.63,2.13,2.19,2.19,0,0,1-1.6.53H28.12a2.29,2.29,0,0,1-1.72-.56,3,3,0,0,1-.68-2.2,3,3,0,0,1,.69-2.18,2.39,2.39,0,0,1,1.72-.49C30.66,18.77,33.4,18.83,36.75,18.83ZM25.58,45.06l-.31.06a16.76,16.76,0,0,1-3.19.32c-4.65,0-8.5-2.21-11.44-6.6a2.56,2.56,0,0,0-1.7-.9c-1.48-.1-2.94,0-4.49,0-.61,0-1.24.06-1.87.06H2.13V20.43h.44c.64,0,1.27.14,1.9.14,1.6,0,3,.1,4.54,0a4.54,4.54,0,0,0,2.39-.8c1.84-1.41,3.66-2.9,5.43-4.35L19.76,13l.87-.71A23.47,23.47,0,0,1,23.82,10a15.24,15.24,0,0,0,6-6.46c.3-.57,1.16-1.52,1.86-1.4a2.77,2.77,0,0,1,1.62,1.69,5.75,5.75,0,0,1-.49,5.37c-1.19,1.94-2.54,3.81-3.85,5.63L28,16.12a2.64,2.64,0,0,1-1.17.8c-2.27.95-3.26,2.65-3.14,5.34.18,4.35-2.19,7.51-6.52,8.67a2.39,2.39,0,0,0-.92.8l-.11.13.17.08a2.21,2.21,0,0,0,1.13.34A24.89,24.89,0,0,0,20.71,31l1.41-.59.23-.09.18.16c1.32,1.16,1.66,2.55,1.12,4.52s.23,3.61,2.05,4.84l.19.13Zm10.29-.18a2.24,2.24,0,0,1-1.6.55H30.21c-2,0-2.81-.8-2.8-2.69S28.4,40,30.24,40h3.93a2.35,2.35,0,0,1,1.75.61,3.69,3.69,0,0,1-.06,4.3Zm1-6.1h0l-3.14-.17c-.73,0-1.48-.08-2.21-.08-1.15,0-2.29,0-3.44,0a2.25,2.25,0,0,1-1.65-.63,3.19,3.19,0,0,1-.65-2.27,2.79,2.79,0,0,1,.69-2.07A2.3,2.3,0,0,1,28.12,33h8.76a2.23,2.23,0,0,1,1.65.54,3.31,3.31,0,0,1,.65,2.27C39.17,36.55,39.16,38.78,36.84,38.78Zm4.17-8a2.19,2.19,0,0,1-1.6.55H33.13c-.61,0-1.22.12-1.84.12-1.41,0-2.83.14-4.24.14H27a2.31,2.31,0,0,1-1.6-.69,3.19,3.19,0,0,1-.67-2.26,3.1,3.1,0,0,1,.68-2.2,2.31,2.31,0,0,1,1.72-.61H39.45a2.3,2.3,0,0,1,1.6.57,3.1,3.1,0,0,1,.64,2.3A2.9,2.9,0,0,1,41,30.8Z"/>
</svg>
