<svg xmlns="http://www.w3.org/2000/svg" viewBox="0 0 30.74 59.65">
    <defs>
        <linearGradient id="a" x1="261" y1="1211.41" x2="261" y2="1276.74" gradientUnits="userSpaceOnUse">
            <stop offset="0.01" stop-color="#92aabf"/>
            <stop offset="1" stop-color="#5a83a5"/>
        </linearGradient>
    </defs>
    <title>icon-pregnancy</title>
    <path style="fill:url(#a)"
          d="M249.21,1240.37l-0.45,2.72a1.5,1.5,0,0,0,.7,1.52l1.62,1-3.24,22a1.5,1.5,0,0,0,1.48,1.72h3.36v4.21a1.5,1.5,0,0,0,3,0v-4.21h5.9l-1.24,3.73a1.5,1.5,0,1,0,2.85.95l1.56-4.68h6a1.5,1.5,0,0,0,1.46-1.85l-1.64-6.76a13,13,0,0,0-5.67-23.68,23.62,23.62,0,0,0-2.28-6.74,5.69,5.69,0,0,0-2-2.34l0.45-.42,0.1-.1c3-3.31.74-8.16,0.64-8.38-1.87-3.84-6.19-3.94-8.13-3.47-5.1.89-5.89,6.35-5.92,6.59,0,0.08-1,7.84-1.92,12a5.42,5.42,0,0,0,.72,4.58A4.48,4.48,0,0,0,249.21,1240.37Zm12.82-1.86a1.5,1.5,0,0,0,1.48,1.42,10,10,0,0,1,4.6,18.73,1.5,1.5,0,0,0-.74,1.67l1.45,6H251.07l2.8-19,6.59,4a1.5,1.5,0,0,0,1.57-2.56l-10.13-6.2,2-12.05a1.55,1.55,0,0,0,0-.24,1.29,1.29,0,0,1,.28-0.74,1.05,1.05,0,0,1,.74-0.14h0.18s3.8-.05,4.83,2.2A19.68,19.68,0,0,1,262,1238.51Zm-13.27-3.73c0.92-4.29,1.92-11.93,2-12.24,0-.14.54-3.52,3.55-4,0.14,0,3.56-.78,4.82,1.82,0,0,1.44,3.22-.12,5.05l-1.42,1.31a11.78,11.78,0,0,0-2.45-.26,3.8,3.8,0,0,0-2.94.92,4.21,4.21,0,0,0-1.25,2.8l-1.19,7.27a1.48,1.48,0,0,1-.77-0.48A2.82,2.82,0,0,1,248.76,1234.78Z"
          transform="translate(-245.63 -1215.36)"/>
</svg>
