<svg xmlns="http://www.w3.org/2000/svg" viewBox="0 0 65.11 78.8">
    <title>icon-terminate-employment</title>
    <path d="M34.78,49.06a19.25,19.25,0,0,0,11.72-18c0-10.61-8.14-19.25-18.14-19.25S10.23,20.47,10.23,31.08a19.25,19.25,0,0,0,11.72,18A28.41,28.41,0,0,0,0,76.69a2.12,2.12,0,1,0,4.23,0,24.13,24.13,0,1,1,48.26,0,2.12,2.12,0,1,0,4.23,0A28.41,28.41,0,0,0,34.78,49.06Zm-20.32-18c0-8.28,6.24-15,13.9-15s13.9,6.74,13.9,15-6.24,15-13.9,15S14.46,39.36,14.46,31.08Z"/>
    <path d="M60.57,6.38l4.14-4.14a1.31,1.31,0,0,0,0-1.86,1.32,1.32,0,0,0-1.86,0L58.72,4.54,54.58.4a1.3,1.3,0,1,0-1.84,1.84l4.14,4.14-4.14,4.14a1.3,1.3,0,1,0,1.84,1.84l4.14-4.14,4.14,4.14a1.3,1.3,0,1,0,1.84-1.84Z"/>
</svg>
