<svg xmlns="http://www.w3.org/2000/svg" viewBox="0 0 81.15 38.19">
    <title>icon-check</title>
    <path d="M89.4,65.11H13.75A2.75,2.75,0,0,1,11,62.36V29.67a2.75,2.75,0,0,1,2.75-2.75H89.4a2.75,2.75,0,0,1,2.75,2.75V62.36A2.75,2.75,0,0,1,89.4,65.11ZM13.75,28.42a1.25,1.25,0,0,0-1.25,1.25V62.36a1.25,1.25,0,0,0,1.25,1.25H89.4a1.25,1.25,0,0,0,1.25-1.25V29.67a1.25,1.25,0,0,0-1.25-1.25H13.75Z" transform="translate(-11 -26.92)"/>
    <rect x="8.79" y="17.63" width="63.58" height="1.5"/>
    <rect x="8.79" y="23.6" width="63.58" height="1.5"/>
    <rect x="47.66" y="29.57" width="24.71" height="1.5"/>
    <path d="M37,39.44H19V34.16H37v5.28Zm-16.42-1.5H35.45V35.66H20.53v2.28Z" transform="translate(-11 -26.92)"/>
</svg>
