<svg xmlns="http://www.w3.org/2000/svg" viewBox="0 0 18 18">
    <title>icon-message</title>
    <path d="M18,8.84a8.71,8.71,0,0,0-.75-3.47A9,9,0,0,0,12.43.66,8.74,8.74,0,0,0,9.05,0H8.93A9.12,9.12,0,0,0,2.58,2.66,9,9,0,0,0,.67,5.52,8.61,8.61,0,0,0,0,9a8.58,8.58,0,0,0,.68,3.3A9.63,9.63,0,0,0,2.36,15a1,1,0,0,1,.27.5c0,0.05,0,.09-0.09.15A5.51,5.51,0,0,1,1,16.11l-0.13,0h0a0.72,0.72,0,0,0-.26.29h0a0.35,0.35,0,0,0,0,.24,0.66,0.66,0,0,0,.38.4,4.64,4.64,0,0,0,.77.27q0.5,0.14,1.27.28c0.52,0.09,1.12.17,1.8,0.23C5.68,18,6.5,18,7.17,18h0.6c0.77,0,1.45-.1,2-0.17a9.38,9.38,0,0,0,5.86-2.92,9,9,0,0,0,1.74-2.75A8.43,8.43,0,0,0,18,8.84Zm-1.45,3A8.14,8.14,0,0,1,15,14.29a8.37,8.37,0,0,1-2.36,1.77,8.52,8.52,0,0,1-2.94.87c-0.56.07-1.22,0.13-2,.17A20.65,20.65,0,0,1,4.83,17c-0.66-.06-1.24-0.13-1.72-0.22l-0.63-.12A4.1,4.1,0,0,0,3,16.38a1,1,0,0,0,.53-1.08,1.84,1.84,0,0,0-.49-1,8.75,8.75,0,0,1-1.52-2.4A7.67,7.67,0,0,1,.9,9a7.73,7.73,0,0,1,.6-3.12A8.09,8.09,0,0,1,3.21,3.3,8.22,8.22,0,0,1,8.94.9H9.05a7.82,7.82,0,0,1,3,.6,8.11,8.11,0,0,1,4.34,4.24,7.85,7.85,0,0,1,.67,3.12A7.57,7.57,0,0,1,16.56,11.81Z"/>
</svg>
