<svg xmlns="http://www.w3.org/2000/svg" viewBox="0 0 14.8 22.42">
    <title>icon-phone</title>
    <path d="M742.44,797.34a0.71,0.71,0,0,0,1,.35l1.3-.61a0.72,0.72,0,0,0,.35-1l-2.27-4.93a0.71,0.71,0,0,0-1-.35l-1.3.61a0.72,0.72,0,0,0-.35,1Z"
          transform="translate(-737.13 -790.77)"/>
    <path d="M751.86,810.89L749.59,806a0.71,0.71,0,0,0-1-.35l-1.3.61a0.72,0.72,0,0,0-.35,1l2.27,4.93a0.71,0.71,0,0,0,1,.35l1.3-.61A0.73,0.73,0,0,0,751.86,810.89Z"
          transform="translate(-737.13 -790.77)"/>
    <path d="M746.82,807.67a0.71,0.71,0,0,0-1-.35h0c-1.14.54-3.42-3-3.81-3.8s-1.58-4.85-.44-5.39h0a0.73,0.73,0,0,0,.34-1l-2-4.27a0.71,0.71,0,0,0-1-.35h0a3.32,3.32,0,0,0-1.79,2.46,20,20,0,0,0,8.17,17.69,3.27,3.27,0,0,0,3,.2h0a0.73,0.73,0,0,0,.35-1Z"
          transform="translate(-737.13 -790.77)"/>
</svg>
