<svg xmlns="http://www.w3.org/2000/svg" viewBox="0 0 101 48.18">
    <title>icon-group</title>
    <path d="M86,32.18H85.6a10.74,10.74,0,0,0,8.13-10.63c0-6-4.59-10.86-10.22-10.86S73.28,15.56,73.28,21.55a10.74,10.74,0,0,0,8.13,10.63H81A14.21,14.21,0,0,0,70,37.36,18.27,18.27,0,0,0,53.72,27.18H52.58A13.48,13.48,0,0,0,63.32,13.69C63.32,6.14,57.55,0,50.45,0S37.58,6.14,37.58,13.69A13.48,13.48,0,0,0,48.33,27.18H47.19A18.16,18.16,0,0,0,31,37.34a14.19,14.19,0,0,0-10.91-5.16h-.45a10.74,10.74,0,0,0,8.13-10.63c0-6-4.59-10.86-10.22-10.86S7.3,15.56,7.3,21.55a10.74,10.74,0,0,0,8.13,10.63H15c-8.26,0-15,6.38-15,14.22v1.78H2V46.4c0-6.74,5.83-12.22,13-12.22h5.07a13.52,13.52,0,0,1,10.07,4.89A29.32,29.32,0,0,0,29,45.68v1.51h2V45.68A16.17,16.17,0,0,1,47.19,29.18h6.53A16.41,16.41,0,0,1,70,45.68v1.51h2V45.68a25.85,25.85,0,0,0-1.13-6.36A13.05,13.05,0,0,1,81,34.18H86c7.14,0,13,5.48,13,12.22v1.78h2V46.4C101,38.56,94.29,32.18,86,32.18ZM75.28,21.55c0-4.89,3.69-8.86,8.22-8.86s8.22,4,8.22,8.86S88,30.41,83.51,30.41,75.28,26.44,75.28,21.55Zm-35.7-7.86C39.58,7.25,44.46,2,50.45,2S61.32,7.25,61.32,13.69,56.44,25.38,50.45,25.38,39.58,20.14,39.58,13.69ZM9.3,21.55c0-4.89,3.69-8.86,8.22-8.86s8.22,4,8.22,8.86-3.69,8.86-8.22,8.86S9.3,26.44,9.3,21.55Z"/>
</svg>
