<svg xmlns="http://www.w3.org/2000/svg" viewBox="0 0 51 49">
    <title>icon-date-of-birth</title>
    <path d="M33,12.92c0.69,0,1.12-.75,0-2C32,12.17,32.37,12.9,33,12.92Zm-7.5,0c0.69,0,1.12-.75,0-2-1.09,1.29-.67,2,0,2h0Zm-7.5,0c0.69,0,1.12-.75,0-2-1.08,1.29-.65,2,0,2h0Zm14.31,2v5.46h1.37V14.95H32.35Zm-7.5,0v5.46h1.37V14.95H24.85Zm-7.5,0v5.46h1.37V14.95H17.35Zm20.86,6.81H12.8a2.42,2.42,0,0,0-2.33,2.51c0,0.08,0,.15,0,0.23v1.33H12V24.48c0-1.37.77-1.37,0.77-1.37H38.2s0.77,0,.77,1.37v1.36h1.54V24.48a2.42,2.42,0,0,0-2.11-2.7h-0.2Zm-2.31,7.79c-1.86,0-3.47-2.34-5.38-2.34s-3.41,2.34-5.38,2.34-3.33-2.34-5.38-2.34-3.13,2.34-5,2.34-4.23-2.34-4.23-2.34V35a3,3,0,0,0,2.94,3.11h24a3,3,0,0,0,3.07-3s0-.09,0-0.13V27.23s-2.69,2.34-4.56,2.34h0Z"/>
</svg>
