<svg xmlns="http://www.w3.org/2000/svg" viewBox="0 0 29 29">
    <title>icon-add</title>
    <polygon points="15 6 14 6 14 14 6 14 6 15 14 15 14 23 15 23 15 15 24 15 24 14 15 14 15 6"/>
    <path d="M68,36.09A4.09,4.09,0,0,0,63.91,32H43.09A4.09,4.09,0,0,0,39,36.09V56.91A4.09,4.09,0,0,0,43.09,61H63.91A4.09,4.09,0,0,0,68,56.91V36.09ZM67,56.91A3.09,3.09,0,0,1,63.91,60H43.09A3.09,3.09,0,0,1,40,56.91V36.09A3.09,3.09,0,0,1,43.09,33H63.91A3.09,3.09,0,0,1,67,36.09V56.91Z" transform="translate(-39 -32)"/>
</svg>
