<svg xmlns="http://www.w3.org/2000/svg" viewBox="0 0 53 44.23">
    <defs>
        <linearGradient id="a" x1="46.26" y1="65.41" x2="46.26" y2="21.18" gradientUnits="userSpaceOnUse">
            <stop offset="0" stop-color="#e6000c"/>
            <stop offset="1" stop-color="#ff469a"/>
        </linearGradient>
        <linearGradient id="b" x1="22.16" y1="40.91" x2="58.48" y2="40.91" gradientUnits="userSpaceOnUse">
            <stop offset="0" stop-color="#fff" stop-opacity="0.5"/>
            <stop offset="1" stop-color="#fff"/>
        </linearGradient>
    </defs>
    <title>icon-life</title>
    <path d="M25.06,48a26.81,26.81,0,0,1-3-3.66,14.47,14.47,0,0,1-2.26-7.47c0-8.55,7-15.72,15.31-15.72,4.69,0,8.81,2.29,11.14,3.72a21.38,21.38,0,0,1,11.23-3.72c8.3,0,15.31,7.22,15.31,15.78,0,5.44-3.55,9.7-5.66,11.76A44.72,44.72,0,0,1,63.17,52L47,65.14a1.19,1.19,0,0,1-1.51,0S29.69,52.25,28,50.84A35.54,35.54,0,0,1,25.06,48Z" transform="translate(-19.76 -21.18)" style="fill:url(#a)"/>
    <path d="M31.48,45.71L34,35.29,38.6,50.53C38.76,51,39.22,52,39.74,52h0c0.53,0,1-.89,1.14-1.39l2.3-8.11,1.5,3a1.07,1.07,0,0,0,1.08.52H52c0.16,0,.41.82,0.74,1.15a3.33,3.33,0,1,0,4.72-4.7c-1.3-1.3-3.42-.64-4.72.67A2.56,2.56,0,0,0,52,45H46.53L44,39a1.55,1.55,0,0,0-1.17-1,1,1,0,0,0-1.05.69l-2.08,7L35,30.69a1.22,1.22,0,0,0-1.18-.86,1.38,1.38,0,0,0-1.12,1.09L29.37,45H22.16c0.26,0,.88,1,1.81,1H31A0.36,0.36,0,0,0,31.48,45.71Z" transform="translate(-19.76 -21.18)" style="opacity:0.63;fill:url(#b)"/>
</svg>
