<svg xmlns="http://www.w3.org/2000/svg" viewBox="0 0 58.51 39.5">
    <defs>
        <linearGradient id="a" x1="258.18" y1="1503.03" x2="258.18" y2="1546.3" gradientUnits="userSpaceOnUse">
            <stop offset="0.01" stop-color="#92aabf"/>
            <stop offset="1" stop-color="#5a83a5"/>
        </linearGradient>
    </defs>
    <title>icon-fmla-others</title>
    <path style="fill:url(#a)"
          d="M277.32,1522.38a9.25,9.25,0,1,0-10.83,0,15.35,15.35,0,0,0-4.83,2.89,6.88,6.88,0,0,0-7.52,0,15.51,15.51,0,0,0-4.29-2.42,9.25,9.25,0,1,0-10.84,0,15.54,15.54,0,0,0-10.08,14.52h3a12.52,12.52,0,0,1,20.09-10,6.89,6.89,0,0,0,1.92,9.29,9.49,9.49,0,0,0-5.12,8.42h3a6.49,6.49,0,1,1,13,0h3a9.5,9.5,0,0,0-5.62-8.66,6.88,6.88,0,0,0,1.58-9.1,12.4,12.4,0,0,1,8.15-3,12.54,12.54,0,0,1,12.53,12.53h3A15.54,15.54,0,0,0,277.32,1522.38Zm-32.92-.73a6.25,6.25,0,1,1,6.25-6.25A6.25,6.25,0,0,1,244.4,1521.65ZM257.9,1535a3.92,3.92,0,1,1,3.92-3.92A3.92,3.92,0,0,1,257.9,1535Zm14-13.84a6.25,6.25,0,1,1,6.25-6.25A6.25,6.25,0,0,1,271.91,1521.15Z"
          transform="translate(-228.93 -1505.65)"/>
</svg>
