<svg xmlns="http://www.w3.org/2000/svg" viewBox="0 0 43 54.95">
    <title>icon-injury</title>
    <path d="M48.68,45.95A11.45,11.45,0,1,0,37.23,34.5,11.46,11.46,0,0,0,48.68,45.95Zm0-19.9a8.45,8.45,0,1,1-8.45,8.45A8.46,8.46,0,0,1,48.68,26Z"
          transform="translate(-27 -23.05)"/>
    <path d="M52.42,47H44.95A18.25,18.25,0,0,0,27,65.16v7.72c0,0.83.8,1.12,1.63,1.12H32.9l-0.79,4H53.67l-0.93-4H60V73h0V66.56a1.51,1.51,0,0,0-.85-1.35l-4.11-2a1.51,1.51,0,0,0-1.67.23l-2.94,2.47L46.06,50h6.36C60.59,50,67,57,67,65.16V71H64v3h4.73A1,1,0,0,0,70,72.88V65.16C70,55.34,62.24,47,52.42,47ZM30,71V65.16A14.69,14.69,0,0,1,37.89,52L33,72.16V71H30Zm5.9,4,5.52-24H43.2l6.52,24H35.9Zm18.73-8.65L57,67.5V71H51.9l-0.57-1.88Z"
          transform="translate(-27 -23.05)"/>
</svg>
