<svg xmlns="http://www.w3.org/2000/svg" viewBox="0 0 93.29 30">
    <title>unum-logo-login--active</title>
    <path style="fill:#0f3d88;"
          d="M13,21.66a2.92,2.92,0,0,1-2.92,2.91H8.34a2.92,2.92,0,0,1-2.92-2.92V12H0v9.66A8.35,8.35,0,0,0,8.34,30h1.71a8.35,8.35,0,0,0,8.34-8.34V12H13v9.66Z"/>
    <path style="fill:#0f3d88;"
          d="M54.05,21.66a2.92,2.92,0,0,1-2.92,2.91H49.43a2.92,2.92,0,0,1-2.92-2.92V12H41.09v9.66A8.35,8.35,0,0,0,49.43,30h1.7a8.35,8.35,0,0,0,8.35-8.34V12H54.05v9.66Z"/>
    <path style="fill:#0f3d88;"
          d="M30.38,11.23H28.67a8.35,8.35,0,0,0-8.35,8.34v9.66h5.43V19.54a2.92,2.92,0,0,1,2.92-2.92h1.72a2.92,2.92,0,0,1,2.91,2.94h0v9.66h5.41V19.57A8.35,8.35,0,0,0,30.38,11.23Z"/>
    <path style="fill:#0f3d88;"
          d="M84.75,10.89H83a8.3,8.3,0,0,0-5.63,2.21,8.3,8.3,0,0,0-5.63-2.2H70.07a9,9,0,0,0-8.72,8.67v9.34h5.73V19.57a3,3,0,0,1,3-2.94h1.71a2.74,2.74,0,0,1,2.68,2.79h0s0,0.1,0,.15v9.34H80.2V19.57A2.88,2.88,0,0,1,83,16.63h1.75a2.85,2.85,0,0,1,2.8,2.9h0v9.39H93.3V19.57A8.81,8.81,0,0,0,84.75,10.89Z"/>
    <circle style="fill:#507794;opacity:0.6;isolation:isolate;" cx="29.9" cy="4.55" r="4.55"/>
    <circle style="fill:#507794;opacity:0.6;isolation:isolate;" cx="50.03" cy="4.55" r="4.55"/>
    <circle style="fill:#507794;opacity:0.6;isolation:isolate;" cx="77.13" cy="4.55" r="4.55"/>
</svg>
