<svg xmlns="http://www.w3.org/2000/svg" viewBox="0 0 93.29 30">
    <title>unum-logo-login</title>
    <path style="fill:#333;"
          d="M10,30H8.34A8.35,8.35,0,0,1,0,21.66V12H5.42v9.66a2.92,2.92,0,0,0,2.92,2.92H10A2.92,2.92,0,0,0,13,21.66V12h5.42v9.66A8.35,8.35,0,0,1,10,30Z"/>
    <path style="fill:#333;"
          d="M51.13,30h-1.7a8.35,8.35,0,0,1-8.34-8.34V12h5.42v9.66a2.92,2.92,0,0,0,2.92,2.92h1.71a2.92,2.92,0,0,0,2.92-2.92V12h5.42v9.66A8.35,8.35,0,0,1,51.13,30Z"/>
    <path style="fill:#333;"
          d="M38.71,29.23H33.29V19.57a2.92,2.92,0,0,0-2.91-2.94H28.67a2.92,2.92,0,0,0-2.92,2.92v9.69H20.32V19.57a8.35,8.35,0,0,1,8.35-8.34h1.71a8.35,8.35,0,0,1,8.33,8.34v9.66Z"/>
    <path style="fill:#333;"
          d="M84.75,10.89H83a8.3,8.3,0,0,0-5.63,2.2,8.3,8.3,0,0,0-5.63-2.2H70.07a9,9,0,0,0-8.72,8.67v9.34h5.73V19.57a3,3,0,0,1,3-2.94h1.71a2.74,2.74,0,0,1,2.68,2.79s0,0.1,0,.15v9.34h5.73V19.57A2.88,2.88,0,0,1,83,16.63h1.75a2.85,2.85,0,0,1,2.8,2.9v9.39h5.73V19.57A8.81,8.81,0,0,0,84.75,10.89Z"/>
    <circle style="fill:#333;opacity:0.6;isolation:isolate;" cx="29.9" cy="4.55" r="4.55"/>
    <circle style="fill:#333;opacity:0.6;isolation:isolate;" cx="50.02" cy="4.55" r="4.55"/>
    <circle style="fill:#333;opacity:0.6;isolation:isolate;" cx="77.13" cy="4.55" r="4.55"/>
</svg>
